<?xml version="1.0" standalone="no"?>
<!DOCTYPE svg PUBLIC "-//W3C//DTD SVG 20010904//EN"
 "http://www.w3.org/TR/2001/REC-SVG-20010904/DTD/svg10.dtd">
<svg version="1.0" xmlns="http://www.w3.org/2000/svg"
 width="5000.000000pt" height="5000.000000pt" viewBox="0 0 5000.000000 5000.000000"
 preserveAspectRatio="xMidYMid meet">

<g transform="translate(0.000000,5000.000000) scale(0.100000,-0.100000)"
fill="#000000" stroke="none">
<path d="M9838 38749 c-599 -46 -1161 -321 -1643 -804 -280 -280 -494 -576
-686 -950 -268 -522 -433 -1077 -504 -1695 -35 -309 -36 -518 -33 -6190 l3
-5595 7968 -3 7967 -2 0 5717 c0 3778 -4 5765 -10 5858 -63 864 -326 1666
-760 2315 -175 262 -429 547 -655 736 -385 323 -797 516 -1275 597 l-125 21
-5070 2 c-2788 1 -5118 -2 -5177 -7z m1714 -3967 c1283 -1318 2358 -2423 2388
-2455 l55 -58 125 64 c196 99 366 147 597 169 331 31 714 -60 1001 -238 40
-25 76 -44 81 -42 5 2 1106 1054 2446 2338 1341 1284 2458 2353 2483 2375 l45
39 219 -223 c121 -123 216 -227 211 -231 -4 -4 -1123 -1074 -2485 -2379
l-2477 -2371 46 -71 c56 -88 132 -248 167 -354 111 -338 111 -690 1 -1022 -36
-107 -95 -232 -152 -321 -19 -30 -33 -58 -31 -63 2 -5 1065 -1101 2363 -2435
1298 -1333 2361 -2428 2363 -2433 4 -11 -436 -433 -448 -429 -5 2 -1033 1056
-2285 2343 -1252 1287 -2317 2380 -2365 2429 l-89 90 -48 -28 c-208 -119 -451
-191 -683 -204 -375 -22 -704 62 -1015 257 l-98 62 -26 -25 c-14 -13 -1131
-1082 -2481 -2375 -1350 -1293 -2458 -2351 -2461 -2351 -3 0 -102 100 -221
223 l-215 223 2483 2378 c1366 1309 2484 2383 2484 2388 0 5 -18 40 -40 76
-87 147 -164 365 -194 547 -56 338 -6 675 141 970 25 50 59 109 74 132 16 23
29 46 29 52 0 6 -1073 1113 -2385 2461 -1312 1348 -2385 2454 -2384 2458 1 6
439 430 446 432 1 0 1052 -1079 2335 -2398z"/>
<path d="M29328 38749 c-910 -71 -1758 -695 -2293 -1689 -312 -581 -499 -1244
-555 -1969 -7 -90 -10 -2029 -10 -5858 l0 -5723 7968 2 7967 3 3 5585 c2 3706
-1 5663 -7 5817 -33 735 -186 1370 -475 1968 -369 764 -909 1336 -1541 1636
-237 112 -450 175 -740 221 -63 9 -1146 12 -5145 14 -2786 1 -5113 -2 -5172
-7z m1834 -4086 c1281 -1316 2331 -2393 2333 -2393 2 0 34 18 72 39 196 113
446 183 703 197 316 18 689 -80 958 -252 29 -19 56 -34 60 -34 5 0 1126 1071
2493 2380 l2484 2379 215 -221 c118 -122 215 -225 215 -229 0 -4 -1111 -1072
-2470 -2373 -1358 -1301 -2474 -2371 -2479 -2379 -5 -8 6 -34 34 -77 94 -146
178 -357 221 -560 31 -142 34 -457 6 -595 -38 -193 -104 -367 -194 -516 l-54
-90 314 -322 c172 -177 1239 -1273 2370 -2435 l2056 -2113 -137 -132 c-75 -73
-176 -169 -223 -214 -47 -46 -90 -83 -95 -82 -5 0 -1029 1050 -2277 2332
-1247 1283 -2311 2376 -2364 2430 l-96 97 -131 -64 c-238 -118 -448 -167 -711
-167 -169 0 -266 11 -405 46 -187 47 -337 111 -504 215 l-98 62 -97 -94 c-110
-109 -4816 -4614 -4848 -4641 -21 -18 -23 -17 -224 188 -111 113 -209 214
-216 225 -12 17 183 207 2464 2391 1363 1305 2482 2376 2487 2380 4 4 -8 35
-28 68 -87 142 -157 324 -198 511 -19 91 -22 134 -22 325 0 190 3 233 22 318
42 189 128 399 213 523 l31 46 -129 132 c-72 72 -1110 1139 -2308 2371 -1198
1232 -2216 2279 -2262 2326 l-84 85 228 218 228 218 59 -63 c33 -35 1108
-1140 2388 -2456z"/>
<path d="M6740 22919 c-340 -71 -641 -303 -798 -614 -32 -64 -79 -207 -92
-276 -6 -35 -13 -73 -15 -85 -4 -19 -14 -22 -97 -27 -377 -25 -712 -275 -903
-672 -57 -118 -99 -247 -127 -387 -32 -163 -32 -443 0 -606 91 -453 336 -799
682 -966 188 -91 181 -90 793 -94 l537 -3 0 -3753 0 -3753 -77 -6 c-288 -23
-571 -197 -763 -469 -104 -147 -198 -367 -241 -566 -16 -76 -22 -147 -26 -324
l-6 -228 2273 0 2272 0 -5 228 c-4 180 -9 247 -26 325 -98 451 -364 809 -710
957 -78 34 -187 65 -251 72 l-25 3 -3 3758 -2 3757 5890 0 5890 0 0 -3754 0
-3753 -77 -6 c-229 -18 -438 -121 -623 -307 -191 -191 -315 -432 -380 -735
-17 -78 -23 -149 -27 -322 l-6 -223 2273 0 2272 0 -5 233 c-5 253 -17 329 -77
510 -147 440 -486 766 -865 831 l-70 12 -3 3757 -2 3757 594 0 c663 0 701 3
859 66 l87 35 68 -27 c171 -69 153 -67 745 -71 l537 -4 0 -3753 0 -3753 -77
-6 c-379 -30 -746 -330 -912 -747 -82 -207 -111 -362 -118 -632 l-6 -208 2277
0 2276 0 0 123 c0 157 -15 326 -40 443 -107 514 -464 916 -890 1004 l-85 17
-3 3757 -2 3756 5890 0 5890 0 0 -3754 0 -3753 -82 -6 c-106 -8 -235 -45 -346
-101 -214 -108 -392 -291 -515 -533 -126 -248 -177 -482 -177 -820 l0 -133
2275 0 2275 0 0 139 c0 333 -51 566 -177 814 -70 138 -146 239 -259 347 -159
152 -320 238 -510 274 l-69 12 -3 3757 -2 3756 632 3 633 3 90 28 c422 131
726 496 837 1007 19 91 22 134 22 325 0 191 -3 234 -22 325 -94 431 -339 778
-662 937 -142 70 -241 94 -419 101 l-155 7 -13 78 c-72 427 -403 785 -839 905
l-99 27 -8240 3 c-7369 2 -8249 1 -8322 -13 -431 -81 -777 -393 -897 -809 -15
-49 -29 -112 -32 -141 l-6 -52 -97 -6 c-105 -7 -199 -29 -303 -71 l-68 -27
-87 35 c-111 44 -235 66 -377 66 l-112 0 -13 77 c-79 468 -457 846 -930 928
-73 13 -1122 15 -8295 14 -8152 0 -8212 -1 -8306 -20z"/>
</g>
</svg>
